<svg width="72" height="104" viewBox="0 0 72 104" fill="none" xmlns="http://www.w3.org/2000/svg">
<g clip-path="url(#clip0_622_9334)">
<path d="M71.9963 54.8353C71.9963 61.4261 66.6888 66.769 60.1417 66.769C53.5945 66.769 48.287 61.4261 48.287 54.8353C48.287 48.2444 53.5945 42.9016 60.1417 42.9016C66.6888 42.9016 71.9963 48.2444 71.9963 54.8353Z" fill="#F05422"/>
<path d="M71.9963 12.0294C71.9963 18.6202 66.6888 23.9631 60.1417 23.9631C53.5945 23.9631 48.287 18.6202 48.287 12.0294C48.287 5.43863 53.5945 0.0957031 60.1417 0.0957031C66.6888 0.0957031 71.9963 5.43863 71.9963 12.0294Z" fill="#F05422"/>
<path d="M39.2483 0.0840565L29.2801 25.0634L39.664 66.7829L24.0033 66.7485L17.8483 40.9897L15.4274 46.9544L15.4766 66.7306L0.280779 66.6975L0.263916 0L15.6189 0.0330385C15.6189 0.0330385 15.3891 21.3017 15.2907 23.261L23.4042 0.049649L39.2483 0.0840565Z" fill="#F05422"/>
<path d="M3.95422 87.6959C1.37471 87.6959 0.0462376 86.172 0 84.1506H1.66818C1.71451 85.3169 2.36328 86.2343 3.96972 86.2343C5.05105 86.2343 5.91596 85.7833 5.91596 84.757C5.91596 83.8396 5.32902 83.2798 3.50635 82.6734C1.77634 82.0826 0.324388 81.3051 0.324388 79.5324C0.324388 77.6508 1.80725 76.5002 3.75349 76.5002C6.08595 76.5002 7.368 78.0552 7.39883 79.7501H5.83881C5.77698 78.8793 5.17453 77.9619 3.75349 77.9619C2.68767 77.9619 2.00798 78.5839 2.00798 79.4235C2.00798 80.3254 2.734 80.7608 4.2787 81.3051C6.37943 82.0514 7.61515 82.9689 7.61515 84.757C7.61515 86.7319 6.05504 87.6959 3.95422 87.6959Z" fill="#F05422"/>
<path d="M11.9088 87.696C10.7812 87.696 9.85436 87.1828 9.85436 85.4723V81.0718H8.34058V79.8901H8.80404C9.62263 79.8901 10.0088 79.5169 10.0088 78.8016V77.8064H11.4454V79.7657H13.3144V81.0718H11.4454V85.3169C11.4454 86.001 11.7544 86.281 12.2022 86.281C12.4958 86.281 12.7428 86.1566 12.8819 86.0632L13.2681 87.3228C12.9592 87.5093 12.5266 87.696 11.9088 87.696Z" fill="#F05422"/>
<path d="M19.0449 84.3527V83.9485L17.871 84.0417C16.4654 84.1505 15.6931 84.6326 15.6931 85.3946C15.6931 86.0942 16.2646 86.4053 16.9288 86.4053C17.9637 86.4053 19.0449 85.721 19.0449 84.3527ZM21.2538 86.2186V87.5403H20.9604C20.2034 87.5403 19.6165 87.276 19.4002 86.5141C18.7978 87.2449 17.8246 87.6959 16.7434 87.6959C15.2451 87.6959 14.1021 86.9495 14.1021 85.4879C14.1021 83.8551 15.4768 83.0777 17.5776 82.9067L19.0449 82.7978V82.6111C19.0449 81.5538 18.5043 80.8541 17.5467 80.8541C16.4808 80.8541 16.0483 81.6316 15.9556 82.2691H14.4419C14.5809 80.7763 15.6931 79.6101 17.5312 79.6101C19.2921 79.6101 20.5742 80.6986 20.5742 82.72V85.4722C20.5742 86.0476 20.7905 86.2186 21.2538 86.2186Z" fill="#F05422"/>
<path d="M25.1459 87.696C24.0184 87.696 23.0915 87.1828 23.0915 85.4723V81.0718H21.5778V79.8901H22.0411C22.8598 79.8901 23.2459 79.5169 23.2459 78.8016V77.8064H24.6825V79.7657H26.5516V81.0718H24.6825V85.3169C24.6825 86.001 24.9914 86.281 25.4394 86.281C25.7329 86.281 25.98 86.1566 26.119 86.0632L26.5052 87.3228C26.1963 87.5093 25.7638 87.696 25.1459 87.696Z" fill="#F05422"/>
<path d="M33.0855 82.8444C33.0547 81.8181 32.2977 80.9007 31.0311 80.9007C29.888 80.9007 29.0848 81.6626 28.8531 82.8444H33.0855ZM34.5683 84.0417H28.7914C28.9149 85.4256 29.6564 86.343 31.1237 86.343C31.9578 86.343 32.7148 85.9698 33.0392 85.2079H34.5683C34.1822 86.8406 32.7303 87.6959 31.1083 87.6959C28.7295 87.6959 27.2621 86.0787 27.2621 83.6218C27.2621 81.2584 28.8686 79.6101 30.9848 79.6101C33.0237 79.6101 34.7692 80.9473 34.5683 84.0417Z" fill="#F05422"/>
<path d="M43.0481 82.9843V87.5403H41.3953V83.2642C41.3953 81.787 40.6229 81.0873 39.5725 81.0873C38.6766 81.0873 37.7808 81.6937 37.7808 83.2021V87.5403H36.1279V79.7656H37.3792L37.6108 80.7297H37.7653C38.0897 80.2632 38.7075 79.6101 40.1287 79.6101C41.7814 79.6101 43.0481 80.7608 43.0481 82.9843Z" fill="#F05422"/>
<path d="M47.6046 87.6959C45.7046 87.6959 44.4999 86.5918 44.4689 85.0058H46.0137C46.0291 86.0476 46.894 86.4364 47.6355 86.4364C48.346 86.4364 48.933 86.1254 48.933 85.4879C48.933 84.757 48.1915 84.4304 47.2339 84.1505C46.1062 83.8241 44.716 83.2954 44.716 81.8648C44.716 80.4964 45.9055 79.6101 47.4964 79.6101C49.242 79.6101 50.2614 80.6985 50.3232 81.9736H48.8248C48.794 81.3205 48.2225 80.8541 47.4346 80.8541C46.8322 80.8541 46.307 81.1806 46.307 81.756C46.307 82.3779 46.8786 82.6734 47.9135 82.9999C49.3655 83.4353 50.5086 84.0417 50.5086 85.4879C50.5086 86.9184 49.2419 87.6959 47.6046 87.6959Z" fill="#F05422"/>
<path d="M2.67215 99.0543H1.94622V103.828H0.277954V92.9431H1.94622V97.4216H2.67215L6.03952 92.9431H7.98576L4.06236 98.1681V98.2922L8.40289 103.828H6.47198L2.67215 99.0543Z" fill="#F05422"/>
<path d="M8.86621 100.609V96.0535H10.519V100.329C10.519 101.806 11.2759 102.506 12.3262 102.506C13.2222 102.506 14.0872 101.9 14.0872 100.391V96.0535H15.7553V103.828H14.4888L14.2571 102.864H14.118C13.7782 103.33 13.1757 103.984 11.7702 103.984C10.1173 103.984 8.86621 102.833 8.86621 100.609Z" fill="#F05422"/>
<path d="M24.4823 99.2713V103.827H22.8294V99.5515C22.8294 98.0739 22.0572 97.3748 21.0068 97.3748C20.1109 97.3748 19.215 97.9808 19.215 99.4895V103.827H17.5623V96.0533H18.8134L19.0451 97.0171H19.1995C19.5239 96.5507 20.1418 95.8972 21.5629 95.8972C23.2157 95.8972 24.4823 97.0481 24.4823 99.2713Z" fill="#F05422"/>
<path d="M29.0388 103.983C27.1389 103.983 25.934 102.879 25.9031 101.293H27.4478C27.4633 102.335 28.3282 102.724 29.0696 102.724C29.7802 102.724 30.3672 102.413 30.3672 101.775C30.3672 101.045 29.6257 100.718 28.6681 100.438C27.5404 100.111 26.1502 99.5826 26.1502 98.1524C26.1502 96.7834 27.3396 95.8972 28.9306 95.8972C30.6762 95.8972 31.6956 96.986 31.7574 98.261H30.2591C30.2282 97.6076 29.6567 97.1412 28.8689 97.1412C28.2665 97.1412 27.7413 97.4679 27.7413 98.0429C27.7413 98.6653 28.3128 98.961 29.3477 99.2869C30.7996 99.7222 31.9427 100.329 31.9427 101.775C31.9427 103.206 30.6762 103.983 29.0388 103.983Z" fill="#F05422"/>
<path d="M36.0667 103.984C34.9392 103.984 34.0123 103.47 34.0123 101.759V97.3595H32.4987V96.1776H32.962C33.7807 96.1776 34.1669 95.8043 34.1669 95.0888V94.094H35.6034V96.0535H37.4725V97.3595H35.6034V101.604C35.6034 102.289 35.9124 102.568 36.3602 102.568C36.6538 102.568 36.9009 102.444 37.0399 102.351L37.4261 103.61C37.1172 103.797 36.6847 103.984 36.0667 103.984Z" fill="#F05422"/>
<path d="M41.442 96.0534H43.4191V97.3594H41.442V103.827H39.8664V97.3594H38.4453V96.0534H39.8664V95.1042C39.8664 93.6275 40.8086 92.7878 42.0443 92.7878C42.9248 92.7878 43.5118 93.1456 43.7126 93.3473L43.2029 94.5758C43.0329 94.4206 42.7085 94.2025 42.307 94.2025C41.7663 94.2025 41.442 94.5602 41.442 95.2603V96.0534Z" fill="#F05422"/>
<path d="M50.4471 99.9403C50.4471 98.5102 49.4894 97.3283 48.0683 97.3283C46.6627 97.3283 45.7205 98.5102 45.7205 99.9403C45.7205 101.37 46.6472 102.552 48.0838 102.552C49.5049 102.552 50.4471 101.386 50.4471 99.9403ZM44.114 99.9248C44.114 97.592 45.8131 95.8972 48.0683 95.8972C50.3235 95.8972 52.0536 97.5765 52.0536 99.9403C52.0536 102.289 50.3699 103.983 48.0838 103.983C45.8285 103.983 44.114 102.289 44.114 99.9248Z" fill="#F05422"/>
<path d="M60.3943 99.2713V103.827H58.7415V99.5515C58.7415 98.0739 57.9692 97.3748 56.9188 97.3748C56.0228 97.3748 55.127 97.9808 55.127 99.4895V103.827H53.4742V96.0533H54.7254L54.9571 97.0171H55.1116C55.4359 96.5507 56.0538 95.8972 57.4749 95.8972C59.1276 95.8972 60.3943 97.0481 60.3943 99.2713Z" fill="#F05422"/>
<path d="M67.731 99.9404C67.731 98.4008 66.866 97.3439 65.584 97.3439C64.2865 97.3439 63.3906 98.4008 63.3906 99.9404C63.3906 101.465 64.3019 102.537 65.584 102.537C66.866 102.537 67.731 101.465 67.731 99.9404ZM69.2911 92.7568V103.827H68.1017L67.8701 102.802H67.7002C67.2677 103.408 66.5571 103.984 65.3368 103.984C63.3598 103.984 61.8151 102.366 61.8151 99.9404C61.8151 97.499 63.406 95.8973 65.4141 95.8973C66.4953 95.8973 67.314 96.3482 67.731 97.0947V92.7568H69.2911Z" fill="#F05422"/>
</g>
<defs>
<clipPath id="clip0_622_9334">
<rect width="72" height="104" fill="white"/>
</clipPath>
</defs>
</svg>
