<?xml version="1.0" encoding="UTF-8" standalone="no"?>
<!DOCTYPE svg PUBLIC "-//W3C//DTD SVG 1.1//EN" "http://www.w3.org/Graphics/SVG/1.1/DTD/svg11.dtd">
<svg width="100%" height="100%" viewBox="0 0 2007 230" version="1.1" xmlns="http://www.w3.org/2000/svg" xmlns:xlink="http://www.w3.org/1999/xlink" xml:space="preserve" xmlns:serif="http://www.serif.com/" style="fill-rule:evenodd;clip-rule:evenodd;stroke-linejoin:round;stroke-miterlimit:2;">
    <g transform="matrix(1,0,0,1,-282.675,-1629.12)">
        <g transform="matrix(4.16667,0,0,4.16667,0,0)">
            <g transform="matrix(-1,0,0,1,1070.42,-5.216)">
                <rect x="530.007" y="396.963" width="10.402" height="53.18" style="fill:currentColor;"/>
            </g>
        </g>
        <g transform="matrix(4.16667,0,0,4.16667,0,0)">
            <g transform="matrix(-1,0,0,1,1089.16,-47.589)">
                <rect x="539.649" y="439.335" width="9.858" height="10.809" style="fill:currentColor;"/>
            </g>
        </g>
        <g transform="matrix(4.16667,0,0,4.16667,0,0)">
            <g transform="matrix(-1,0,0,1,334.688,-5.216)">
                <rect x="162.143" y="396.963" width="10.402" height="53.18" style="fill:currentColor;"/>
            </g>
        </g>
        <g transform="matrix(4.16667,0,0,4.16667,0,0)">
            <g transform="matrix(-1,0,0,1,353.428,-47.589)">
                <rect x="171.785" y="439.335" width="9.858" height="10.809" style="fill:currentColor;"/>
            </g>
        </g>
        <g transform="matrix(4.16667,0,0,4.16667,0,0)">
            <g transform="matrix(-1,0,0,1,641.476,-5.216)">
                <rect x="315.537" y="396.963" width="10.402" height="53.18" style="fill:currentColor;"/>
            </g>
        </g>
        <g transform="matrix(4.16667,0,0,4.16667,0,0)">
            <g transform="matrix(-1,0,0,1,660.214,-47.589)">
                <rect x="325.178" y="439.335" width="9.858" height="10.809" style="fill:currentColor;"/>
            </g>
        </g>
        <g transform="matrix(4.16667,0,0,4.16667,0,0)">
            <g transform="matrix(1,0,0,1,135.819,395.033)">
                <path d="M0,46.572C-2.335,43.875 -3.606,39.698 -3.815,34.041L4.465,31.845C4.549,35.222 5.597,38.328 6.409,39.929C7.222,41.53 8.441,42.33 10.068,42.33C11.276,42.33 12.152,41.925 12.694,41.112C13.235,40.302 13.507,39.26 13.507,37.988C13.507,35.883 13.058,34.097 12.162,32.627C11.265,31.158 9.858,29.547 7.941,27.792L2.689,22.99C0.604,21.149 -0.991,19.175 -2.095,17.07C-3.2,14.965 -3.752,12.444 -3.752,9.506C-3.752,5.164 -2.533,1.821 -0.094,-0.526C2.345,-2.871 5.711,-4.045 10.005,-4.045C14.59,-4.045 17.779,-2.652 19.572,0.132C21.364,2.917 22.367,6.156 22.617,10.454L14.089,12.042C13.925,9.193 13.308,7.259 12.787,5.921C12.266,4.584 11.234,3.914 9.692,3.914C8.567,3.914 7.691,4.365 7.066,5.263C6.441,6.162 6.128,7.226 6.128,8.453C6.128,10.208 6.493,11.688 7.222,12.893C7.951,14.1 9.108,15.426 10.693,16.873L15.82,21.609C18.238,23.845 20.135,26.203 21.511,28.68C22.886,31.158 23.574,34.064 23.574,37.396C23.574,39.94 23.032,42.209 21.948,44.204C20.864,46.2 19.332,47.767 17.352,48.907C15.372,50.047 13.09,50.617 10.505,50.617C5.836,50.617 2.334,49.269 0,46.572" style="fill:currentColor;fill-rule:nonzero;"/>
            </g>
        </g>
        <g transform="matrix(4.16667,0,0,4.16667,0,0)">
            <g transform="matrix(1,0,0,1,476.248,395.362)">
                <path d="M0,46.572C-2.335,43.875 -3.606,39.698 -3.815,34.041L4.465,31.845C4.549,35.222 5.597,38.328 6.409,39.929C7.222,41.53 8.441,42.33 10.068,42.33C11.276,42.33 12.152,41.925 12.694,41.112C13.235,40.302 13.507,39.26 13.507,37.988C13.507,35.883 13.058,34.097 12.162,32.627C11.265,31.158 9.858,29.547 7.941,27.792L2.689,22.99C0.604,21.149 -0.991,19.175 -2.095,17.07C-3.2,14.965 -3.752,12.444 -3.752,9.506C-3.752,5.164 -2.533,1.821 -0.094,-0.526C2.345,-2.871 5.711,-4.045 10.005,-4.045C14.59,-4.045 17.779,-2.652 19.572,0.132C21.364,2.917 22.367,6.156 22.617,10.454L14.089,12.042C13.925,9.193 13.308,7.259 12.787,5.921C12.266,4.584 11.234,3.914 9.692,3.914C8.567,3.914 7.691,4.365 7.066,5.263C6.441,6.162 6.128,7.226 6.128,8.453C6.128,10.208 6.493,11.688 7.222,12.893C7.951,14.1 9.108,15.426 10.693,16.873L15.82,21.609C18.238,23.845 20.135,26.203 21.511,28.68C22.886,31.158 23.574,34.064 23.574,37.396C23.574,39.94 23.032,42.209 21.948,44.204C20.864,46.2 19.332,47.767 17.352,48.907C15.372,50.047 13.09,50.617 10.505,50.617C5.836,50.617 2.334,49.269 0,46.572" style="fill:currentColor;fill-rule:nonzero;"/>
            </g>
        </g>
        <g transform="matrix(4.16667,0,0,4.16667,0,0)">
            <g transform="matrix(1,0,0,1,233.683,399.21)">
                <path d="M0,38.152C1.885,38.152 3.278,37.856 4.177,37.264C5.075,36.672 5.646,35.806 5.887,34.666C6.128,33.526 6.249,31.881 6.249,29.732L6.249,7.696C6.249,5.68 6.106,4.155 5.822,3.124C5.536,2.095 4.955,1.327 4.078,0.822C3.201,0.319 1.819,0.066 -0.066,0.066L-2.368,0.066L-2.368,38.152L0,38.152ZM-13.156,-7.564L-0.131,-7.564C4.342,-7.564 7.838,-6.983 10.36,-5.822C12.882,-4.659 14.679,-2.872 15.754,-0.46C16.828,1.952 17.366,5.153 17.366,9.143L17.366,28.548C17.366,32.626 16.84,35.905 15.787,38.382C14.735,40.86 12.959,42.702 10.459,43.908C7.959,45.114 4.516,45.716 0.132,45.716L-13.156,45.716L-13.156,-7.564Z" style="fill:currentColor;fill-rule:nonzero;"/>
            </g>
        </g>
        <g transform="matrix(4.16667,0,0,4.16667,0,0)">
            <g transform="matrix(1,0,0,1,254.702,444.927)">
                <path d="M0,-53.281L22.46,-53.281L22.46,-45.782L10.788,-45.782L10.788,-31.64L19.632,-31.64L19.632,-24.075L10.788,-24.075L10.788,-7.368L22.591,-7.368L22.591,0L0,0L0,-53.281Z" style="fill:currentColor;fill-rule:nonzero;"/>
            </g>
        </g>
        <g transform="matrix(4.16667,0,0,4.16667,0,0)">
            <g transform="matrix(1,0,0,1,282.263,444.927)">
                <path d="M0,-53.281L7.565,-53.281L18.645,-25.588L18.645,-53.281L26.896,-53.281L26.896,0L21.115,0L8.515,-29.469L8.515,0L0,0L0,-53.281Z" style="fill:currentColor;fill-rule:nonzero;"/>
            </g>
        </g>
        <g transform="matrix(4.16667,0,0,4.16667,0,0)">
            <g transform="matrix(1,0,0,1,340.013,444.927)">
                <path d="M0,-53.281L22.46,-53.281L22.46,-45.782L10.788,-45.782L10.788,-31.64L19.632,-31.64L19.632,-24.075L10.788,-24.075L10.788,-7.368L22.591,-7.368L22.591,0L0,0L0,-53.281Z" style="fill:currentColor;fill-rule:nonzero;"/>
            </g>
        </g>
        <g transform="matrix(4.16667,0,0,4.16667,0,0)">
            <g transform="matrix(1,0,0,1,381.223,422.232)">
                <path d="M0,-7.893C2.543,-7.893 3.569,-8.518 4.601,-9.768C5.63,-11.017 6.146,-12.98 6.146,-15.655C6.146,-18.286 5.686,-20.215 4.766,-21.443C3.844,-22.671 2.938,-23.285 0.526,-23.285L-3.224,-23.285L-3.224,-7.893L0,-7.893ZM-14.011,-30.587L-0.197,-30.587C5.547,-30.587 9.106,-29.534 12.001,-27.429C14.895,-25.324 16.343,-21.684 16.343,-16.51C16.343,-13.045 15.859,-10.25 14.895,-8.123C13.93,-5.996 12.98,-4.384 10.524,-3.289L17.892,22.694L6.015,22.694L-0.036,-1.447L-3.224,-1.447L-3.224,22.694L-14.011,22.694L-14.011,-30.587Z" style="fill:currentColor;fill-rule:nonzero;"/>
            </g>
        </g>
        <g transform="matrix(4.16667,0,0,4.16667,0,0)">
            <g transform="matrix(1,0,0,1,403.061,444.927)">
                <path d="M0,-53.281L10.093,-53.281L10.093,-31.443L19.499,-31.443L19.499,-53.281L29.593,-53.281L29.593,0L19.499,0L19.499,-23.615L10.093,-23.615L10.093,0L0,0L0,-53.281Z" style="fill:currentColor;fill-rule:nonzero;"/>
            </g>
        </g>
        <g transform="matrix(4.16667,0,0,4.16667,0,0)">
            <g transform="matrix(1,0,0,1,444.69,393.652)">
                <path d="M0,49.992C-2.118,48.655 -3.614,46.714 -4.486,44.17C-5.359,41.628 -5.795,38.382 -5.795,34.435L-5.795,-2.006L4.3,-2.006L4.3,35.948C4.3,38.492 4.59,40.487 5.172,41.934C5.754,43.381 6.958,44.105 8.786,44.105C10.614,44.105 11.818,43.381 12.401,41.934C12.982,40.487 13.273,38.492 13.273,35.948L13.273,-2.006L23.43,-2.006L23.43,34.435C23.43,38.382 22.994,41.628 22.122,44.17C21.249,46.714 19.743,48.655 17.604,49.992C15.463,51.329 12.525,51.998 8.786,51.998C5.048,51.998 2.119,51.329 0,49.992" style="fill:currentColor;fill-rule:nonzero;"/>
            </g>
        </g>
        <g transform="matrix(4.16667,0,0,4.16667,0,0)">
            <g transform="matrix(1,0,0,1,191.549,393.29)">
                <path d="M0,49.992C-2.118,48.655 -3.614,46.714 -4.486,44.17C-5.359,41.628 -5.795,38.382 -5.795,34.435L-5.795,-2.006L4.3,-2.006L4.3,35.948C4.3,38.492 4.59,40.487 5.172,41.934C5.754,43.381 6.958,44.105 8.786,44.105C10.614,44.105 11.818,43.381 12.401,41.934C12.982,40.487 13.273,38.492 13.273,35.948L13.273,-2.006L23.43,-2.006L23.43,34.435C23.43,38.382 22.994,41.628 22.122,44.17C21.249,46.714 19.743,48.655 17.604,49.992C15.463,51.329 12.525,51.998 8.786,51.998C5.048,51.998 2.119,51.329 0,49.992" style="fill:currentColor;fill-rule:nonzero;"/>
            </g>
        </g>
        <g transform="matrix(4.16667,0,0,4.16667,0,0)">
            <g transform="matrix(1,0,0,1,504.358,444.927)">
                <path d="M0,-53.281L22.459,-53.281L22.459,-45.782L10.787,-45.782L10.787,-31.64L19.631,-31.64L19.631,-24.075L10.787,-24.075L10.787,-7.368L22.591,-7.368L22.591,0L0,0L0,-53.281Z" style="fill:currentColor;fill-rule:nonzero;"/>
            </g>
        </g>
        <g transform="matrix(4.16667,0,0,4.16667,0,0)">
            <g transform="matrix(1,0,0,1,110.606,390.988)">
                <path d="M0,54.662L-18.306,54.662L-18.306,48.589L-6.102,48.589L-6.102,30.368L-30.56,30.368L-30.56,0L-12.255,0L-12.255,6.073L-24.459,6.073L-24.459,24.295L0,24.295L0,54.662Z" style="fill:currentColor;fill-rule:nonzero;"/>
            </g>
        </g>
        <g transform="matrix(4.16667,0,0,4.16667,0,0)">
            <g transform="matrix(1,0,0,1,86.198,390.988)">
                <path d="M0,54.662L-18.356,54.662L-18.356,0L-12.255,0L-12.255,48.589L-6.102,48.589L-6.102,36.442L12.204,36.442L12.204,42.515L0,42.515L0,54.662Z" style="fill:currentColor;fill-rule:nonzero;"/>
            </g>
        </g>
        <g transform="matrix(4.16667,0,0,4.16667,0,0)">
            <g transform="matrix(1,0,0,1,122.81,390.988)">
                <path d="M0,54.662L-6.102,54.662L-6.102,6.073L-12.255,6.073L-12.255,18.221L-30.56,18.221L-30.56,12.147L-18.356,12.147L-18.356,0L0,0L0,54.662Z" style="fill:currentColor;fill-rule:nonzero;"/>
            </g>
        </g>
    </g>
</svg>
