<svg width="176" height="69" viewBox="0 0 176 69" fill="none" xmlns="http://www.w3.org/2000/svg">
<g clip-path="url(#clip0_622_9377)">
<path d="M3.59075 58.9033H0V68.1816H2.014V65.278H3.57751C5.44576 65.278 6.86351 63.9186 6.86351 62.0841C6.87676 60.2627 5.45901 58.9033 3.59075 58.9033ZM3.498 63.4303H2.014V60.7643H3.498C4.29301 60.7643 4.83626 61.3186 4.83626 62.0973C4.83626 62.8628 4.29301 63.4303 3.498 63.4303Z" fill="#004250"/>
<path d="M15.5688 61.9785C15.5688 60.1835 14.1775 58.9033 12.3093 58.9033H8.54626V68.1816H10.5603V65.0141H11.8588L13.674 68.1816H15.9265L13.8595 64.6709C14.893 64.1826 15.5688 63.1795 15.5688 61.9785ZM12.1768 63.1663H10.5603V60.7643H12.1768C13.0248 60.7643 13.5283 61.2658 13.5283 61.9653C13.515 62.6516 13.0115 63.1663 12.1768 63.1663Z" fill="#004250"/>
<path d="M21.9553 58.7053C19.1066 58.7053 16.9866 60.7906 16.9866 63.5491C16.9866 66.3075 19.1198 68.3928 21.9553 68.3928C24.7908 68.3928 26.9108 66.3207 26.9108 63.5491C26.8976 60.7774 24.7908 58.7053 21.9553 58.7053ZM21.9553 66.4922C20.2991 66.4922 19.0271 65.212 19.0271 63.5491C19.0271 61.8861 20.2991 60.6059 21.9553 60.6059C23.6116 60.6059 24.8571 61.8729 24.8571 63.5491C24.8571 65.2252 23.6116 66.4922 21.9553 66.4922Z" fill="#004250"/>
<path d="M28.7526 68.1816H30.7666V64.6313H33.9731V62.81H30.7666V60.7643H34.3176V58.9033H28.7526V68.1816Z" fill="#004250"/>
<path d="M38.1468 64.407H41.3798V62.5856H38.1468V60.7511H41.7243V58.9033H36.1328V68.1816H41.8701V66.3207H38.1468V64.407Z" fill="#004250"/>
<path d="M47.2628 62.5066C46.2823 62.269 45.4608 62.0711 45.4608 61.4244C45.4608 60.8172 46.1233 60.5401 46.7725 60.5401C47.5278 60.5401 48.1903 60.9096 48.1903 61.7147H50.1778C50.1778 59.867 48.9588 58.7319 46.8123 58.7319C44.7453 58.7319 43.4335 59.735 43.4335 61.5167C43.4335 63.5229 45.1428 63.9188 46.5473 64.262C47.5543 64.4995 48.4023 64.6975 48.4023 65.4102C48.4023 66.0965 47.6603 66.5057 46.905 66.5057C46.0835 66.5057 45.3415 66.0701 45.3415 65.1726H43.3275C43.3275 67.1656 44.7983 68.3666 46.9448 68.3666C48.8793 68.3666 50.4825 67.3899 50.4825 65.3838C50.4693 63.3117 48.6805 62.8762 47.2628 62.5066Z" fill="#004250"/>
<path d="M55.7693 62.5066C54.7888 62.269 53.9673 62.0711 53.9673 61.4244C53.9673 60.8172 54.6298 60.5401 55.2791 60.5401C56.0343 60.5401 56.6968 60.9096 56.6968 61.7147H58.6843C58.6843 59.867 57.4653 58.7319 55.3188 58.7319C53.2518 58.7319 51.9401 59.735 51.9401 61.5167C51.9401 63.5229 53.6493 63.9188 55.0538 64.262C56.0608 64.4995 56.9088 64.6975 56.9088 65.4102C56.9088 66.0965 56.1668 66.5057 55.4116 66.5057C54.5901 66.5057 53.8481 66.0701 53.8481 65.1726H51.8208C51.8208 67.1656 53.2916 68.3666 55.4381 68.3666C57.3726 68.3666 58.9758 67.3899 58.9758 65.3838C58.9758 63.3117 57.1871 62.8762 55.7693 62.5066Z" fill="#004250"/>
<path d="M62.8713 58.9033H60.8573V68.1816H62.8713V58.9033Z" fill="#004250"/>
<path d="M69.6951 58.7053C66.8463 58.7053 64.7263 60.7906 64.7263 63.5491C64.7263 66.3075 66.8596 68.3928 69.6951 68.3928C72.5306 68.3928 74.6506 66.3207 74.6506 63.5491C74.6506 60.7774 72.5306 58.7053 69.6951 58.7053ZM69.6951 66.4922C68.0388 66.4922 66.7668 65.212 66.7668 63.5491C66.7668 61.8861 68.0388 60.6059 69.6951 60.6059C71.3513 60.6059 72.5968 61.8729 72.5968 63.5491C72.5968 65.2252 71.3513 66.4922 69.6951 66.4922Z" fill="#004250"/>
<path d="M82.4018 64.5653L78.3076 58.9033H76.4923V68.1816H78.4666V62.3876L82.6933 68.1816H84.3761V58.9033H82.4018V64.5653Z" fill="#004250"/>
<path d="M90.1796 62.5066C89.1991 62.269 88.3776 62.0711 88.3776 61.4244C88.3776 60.8172 89.0401 60.5401 89.6893 60.5401C90.4446 60.5401 91.1071 60.9096 91.1071 61.7147H93.0946C93.0946 59.867 91.8756 58.7319 89.7291 58.7319C87.6621 58.7319 86.3503 59.735 86.3503 61.5167C86.3503 63.5229 88.0596 63.9188 89.4641 64.262C90.4711 64.4995 91.3191 64.6975 91.3191 65.4102C91.3191 66.0965 90.5771 66.5057 89.8218 66.5057C89.0003 66.5057 88.2583 66.0701 88.2583 65.1726H86.2311C86.2311 67.1656 87.7018 68.3666 89.8483 68.3666C91.7828 68.3666 93.3861 67.3899 93.3861 65.3838C93.3861 63.3117 91.6106 62.8762 90.1796 62.5066Z" fill="#004250"/>
<path d="M100.793 62.48H97.2816V58.9033H95.2676V68.1816H97.2816V64.341H100.793V68.1816H102.807V58.9033H100.793V62.48Z" fill="#004250"/>
<path d="M112.97 59.8802L114.069 58.072H111.91L111.366 58.9959C110.823 58.8111 110.24 58.7055 109.631 58.7055C106.795 58.7055 104.662 60.7776 104.662 63.5097C104.662 65.0407 105.338 66.3473 106.437 67.2051L105.298 69.0001H107.484L108.041 68.0894C108.584 68.2742 109.18 68.3798 109.803 68.3798C112.638 68.3798 114.745 66.3473 114.745 63.6284C114.758 62.0711 114.069 60.738 112.97 59.8802ZM107.55 65.529C107.034 65.0143 106.729 64.3016 106.729 63.4965C106.729 61.8467 107.974 60.5929 109.631 60.5929C109.909 60.5929 110.174 60.6325 110.426 60.6985L107.55 65.529ZM109.763 66.4925C109.485 66.4925 109.233 66.4529 109.008 66.3869L111.883 61.5695C112.387 62.0843 112.691 62.797 112.691 63.6021C112.691 65.265 111.433 66.4925 109.763 66.4925Z" fill="#004250"/>
<path d="M120.681 64.9085C120.681 65.8719 120.111 66.4923 119.29 66.4923C118.415 66.4923 117.846 65.8719 117.846 64.9085V64.6709H115.858V65.0141C115.858 66.9806 117.289 68.3796 119.29 68.3796C121.317 68.3796 122.669 66.9806 122.669 65.0141V58.9033H120.681V64.9085Z" fill="#004250"/>
<path d="M128.406 62.5066C127.425 62.269 126.604 62.0711 126.604 61.4244C126.604 60.8172 127.266 60.5401 127.916 60.5401C128.671 60.5401 129.333 60.9096 129.333 61.7147H131.321C131.321 59.867 130.102 58.7319 127.955 58.7319C125.888 58.7319 124.577 59.735 124.577 61.5167C124.577 63.5229 126.286 63.9188 127.69 64.262C128.697 64.4995 129.545 64.6975 129.545 65.4102C129.545 66.0965 128.803 66.5057 128.048 66.5057C127.227 66.5057 126.485 66.0701 126.485 65.1726H124.457C124.457 67.1656 125.928 68.3666 128.075 68.3666C130.009 68.3666 131.612 67.3899 131.612 65.3838C131.612 63.3117 129.837 62.8762 128.406 62.5066Z" fill="#004250"/>
<path d="M140.914 58.9033H138.569L135.508 63.1927V58.9033H133.494V68.1816H135.508V63.6547L138.807 68.1816H141.258L137.747 63.3511L140.914 58.9033Z" fill="#004250"/>
<path d="M146.399 58.7053C143.551 58.7053 141.431 60.7906 141.431 63.5491C141.431 66.3075 143.564 68.3928 146.399 68.3928C149.235 68.3928 151.355 66.3207 151.355 63.5491C151.342 60.7774 149.235 58.7053 146.399 58.7053ZM146.399 66.4922C144.743 66.4922 143.471 65.212 143.471 63.5491C143.471 61.8861 144.743 60.6059 146.399 60.6059C148.056 60.6059 149.301 61.8729 149.301 63.5491C149.301 65.2252 148.056 66.4922 146.399 66.4922Z" fill="#004250"/>
<path d="M155.211 58.9033H153.197V68.1816H158.788V66.3207H155.211V58.9033Z" fill="#004250"/>
<path d="M162.419 64.407H165.652V62.5856H162.419V60.7511H166.01V58.9033H160.405V68.1816H166.155V66.3207H162.419V64.407Z" fill="#004250"/>
<path d="M174.026 58.9033V64.5653L169.931 58.9033H168.116V68.1816H170.09V62.3876L174.317 68.1816H176V58.9033H174.026Z" fill="#004250"/>
<path d="M72.4379 24.7995V6.96875H66.2104V24.7863C66.2104 26.502 64.8191 27.8878 63.0966 27.8878C61.3741 27.8878 59.9829 26.502 59.9829 24.7863V6.96875H53.7554V24.7863C53.7554 29.9204 57.9291 34.0778 63.0834 34.0778C68.2376 34.0778 72.4379 29.9336 72.4379 24.7995Z" fill="#004250"/>
<path d="M97.3346 23.242H91.1071V30.9893C91.1071 32.705 89.7159 34.0909 87.9934 34.0909C86.2709 34.0909 84.8796 32.705 84.8796 30.9893V9.29151C84.8796 7.57575 86.2709 6.18994 87.9934 6.18994C89.7159 6.18994 91.1071 7.57575 91.1071 9.29151V17.0388H97.3346V9.29151C97.3346 4.15742 93.1609 0 88.0066 0C82.8523 0 78.6786 4.15742 78.6786 9.29151V30.9893C78.6786 36.1234 82.8523 40.2808 88.0066 40.2808C93.1609 40.2808 97.3346 36.1234 97.3346 30.9893V23.242Z" fill="#004250"/>
<path d="M116.004 33.3122H122.231V15.4946C122.231 10.3605 118.058 6.20312 112.903 6.20312C107.749 6.20312 103.575 10.3605 103.575 15.4946V33.3122H109.803V15.4946C109.803 13.7789 111.194 12.3931 112.917 12.3931C114.639 12.3931 116.03 13.7789 116.03 15.4946V33.3122H116.004Z" fill="#004250"/>
</g>
<defs>
<clipPath id="clip0_622_9377">
<rect width="176" height="69" fill="white"/>
</clipPath>
</defs>
</svg>
